<svg xmlns="http://www.w3.org/2000/svg" width="500" height="500"><path d="M391.667 200h-8.334V100c0-55.141-44.858-100-100-100h-66.667c-55.141 0-100 44.859-100 100v100h-8.333c-13.75 0-25 11.25-25 25v250c0 13.75 11.25 25 25 25h283.333c13.75 0 25-11.25 25-25V225c.001-13.75-11.249-25-24.999-25zM283.333 433.333h-66.667l14.5-72.5c-8.754-6.007-14.5-16.08-14.5-27.5C216.667 314.924 231.591 300 250 300s33.333 14.924 33.333 33.333c0 11.42-5.745 21.493-14.5 27.5l14.5 72.5zM316.667 200H183.333V100c0-18.38 14.953-33.333 33.333-33.333h66.667c18.38 0 33.334 14.953 33.334 33.333v100z"/></svg>