<svg xmlns="http://www.w3.org/2000/svg" width="500" height="500"><path d="M400 0h-66.667c-55.141 0-100 44.859-100 100v100H25c-13.75 0-25 11.25-25 25v250c0 13.75 11.25 25 25 25h283.333c13.751 0 25-11.25 25-25V225c0-13.75-11.249-25-25-25H300V100c0-18.38 14.953-33.333 33.333-33.333H400c18.38 0 33.333 14.953 33.333 33.333v100H500V100C500 44.859 455.141 0 400 0zM200 433.333h-66.667l14.5-72.5c-8.754-6.007-14.5-16.08-14.5-27.5 0-18.409 14.924-33.333 33.333-33.333S200 314.924 200 333.333c0 11.42-5.746 21.493-14.5 27.5l14.5 72.5z"/></svg>